<svg width="12" height="6" viewBox="0 0 12 6" fill="none" xmlns="http://www.w3.org/2000/svg">
<path d="M0.249225 0.247421C0.328898 0.169022 0.423687 0.106794 0.528126 0.0643287C0.632565 0.0218632 0.744586 0 0.857726 0C0.970866 0 1.08289 0.0218632 1.18733 0.0643287C1.29177 0.106794 1.38655 0.169022 1.46623 0.247421L5.3915 4.07837C5.47117 4.15677 5.56596 4.219 5.6704 4.26146C5.77484 4.30393 5.88686 4.32579 6 4.32579C6.11314 4.32579 6.22516 4.30393 6.3296 4.26146C6.43404 4.219 6.52883 4.15677 6.6085 4.07837L10.5338 0.247421C10.6134 0.169022 10.7082 0.106794 10.8127 0.0643287C10.9171 0.0218632 11.0291 0 11.1423 0C11.2554 0 11.3674 0.0218632 11.4719 0.0643287C11.5763 0.106794 11.6711 0.169022 11.7508 0.247421C11.9104 0.404141 12 0.616141 12 0.837119C12 1.0581 11.9104 1.2701 11.7508 1.42682L7.81694 5.26613C7.33485 5.73605 6.68135 6 6 6C5.31865 6 4.66515 5.73605 4.18306 5.26613L0.249225 1.42682C0.0895987 1.2701 9.53674e-07 1.0581 9.53674e-07 0.837119C9.53674e-07 0.616141 0.0895987 0.404141 0.249225 0.247421Z" fill="black" fill-opacity="0.4"/>
</svg>
