<svg width="33" height="33" viewBox="0 0 33 33" fill="none" xmlns="http://www.w3.org/2000/svg">
<g clip-path="url(#clip0_15_57)">
<path d="M16.9342 3.25774C9.02029 3.25774 2.60522 9.67281 2.60522 17.5867C2.60522 24.7383 7.84532 30.6662 14.696 31.7423V21.7278H11.0564V17.5867H14.696V14.43C14.696 10.8392 16.8339 8.85606 20.108 8.85606C21.6756 8.85606 23.3148 9.13548 23.3148 9.13548V12.6604H21.5094C19.7283 12.6604 19.1738 13.7652 19.1738 14.8986V17.5867H23.1472L22.5124 21.7278H19.1738V31.7423C26.023 30.6676 31.2631 24.7368 31.2631 17.5867C31.2631 9.67281 24.848 3.25774 16.9342 3.25774Z" fill="white"/>
</g>
<defs>
<clipPath id="clip0_15_57">
<rect width="33" height="33" fill="white"/>
</clipPath>
</defs>
</svg>
