<svg width="19" height="19" viewBox="0 0 19 19" fill="none" xmlns="http://www.w3.org/2000/svg">
<g clip-path="url(#clip0_4_335)">
<path d="M7.91667 2.375V3.95833H3.95833V15.0417H15.0417V11.0833H16.625V15.8333C16.625 16.0433 16.5416 16.2447 16.3931 16.3931C16.2447 16.5416 16.0433 16.625 15.8333 16.625H3.16667C2.9567 16.625 2.75534 16.5416 2.60687 16.3931C2.45841 16.2447 2.375 16.0433 2.375 15.8333V3.16667C2.375 2.9567 2.45841 2.75534 2.60687 2.60687C2.75534 2.45841 2.9567 2.375 3.16667 2.375H7.91667ZM14.018 6.10137L9.5 10.6194L8.38058 9.5L12.8986 4.98196L10.2917 2.375H16.625V8.70833L14.018 6.10137Z" fill="white"/>
</g>
<defs>
<clipPath id="clip0_4_335">
<rect width="19" height="19" fill="white"/>
</clipPath>
</defs>
</svg>
